<svg width="16" height="16" fill="none" xmlns="http://www.w3.org/2000/svg"><g clip-path="url(#prefix__clip0_6357_19973)"><path d="M3.333 14.667c-.366 0-.68-.13-.942-.392A1.285 1.285 0 012 13.334V4h1.333v9.334h7.334v1.333H3.333zM6 12c-.367 0-.68-.13-.941-.391a1.284 1.284 0 01-.392-.942v-8c0-.367.13-.68.392-.942.26-.261.574-.392.941-.392h6c.367 0 .68.13.942.392.26.261.391.575.391.942v8c0 .367-.13.68-.391.942-.261.26-.575.391-.942.391H6zm0-1.333h6v-8H6v8zm0 0v-8 8z" fill="#FF6500"/></g><defs><clipPath id="prefix__clip0_6357_19973"><path fill="#fff" d="M0 0h16v16H0z"/></clipPath></defs></svg>