<svg width="24" height="24" fill="none" xmlns="http://www.w3.org/2000/svg"><g clip-path="url(#prefix__clip0_1523_749)"><path d="M12 13c-.317 0-.587-.108-.812-.325a1.096 1.096 0 01-.338-.825V3.925c0-.317.113-.584.338-.8.225-.217.495-.325.812-.325.317 0 .587.108.812.325.225.216.338.483.338.8v7.925c0 .333-.113.608-.338.825A1.127 1.127 0 0112 13zm0 8.2a8.989 8.989 0 01-3.587-.725 9.244 9.244 0 01-2.925-1.963 9.245 9.245 0 01-1.963-2.925A8.988 8.988 0 012.8 12c0-1.15.2-2.25.6-3.3.4-1.05.983-2 1.75-2.85.2-.234.463-.355.788-.363.325-.008.604.104.837.338a.97.97 0 01.313.775c-.009.316-.113.6-.313.85a6.86 6.86 0 00-1.7 4.55c0 1.933.671 3.57 2.013 4.913 1.341 1.341 2.979 2.012 4.912 2.012 1.933 0 3.571-.67 4.913-2.012 1.341-1.342 2.012-2.98 2.012-4.913A7.037 7.037 0 0017.2 7.4a1.21 1.21 0 01-.3-.812c0-.309.108-.563.325-.763.233-.234.512-.346.837-.338.325.008.588.13.788.363.767.85 1.35 1.8 1.75 2.85.4 1.05.6 2.15.6 3.3a8.987 8.987 0 01-.725 3.587 9.252 9.252 0 01-1.962 2.925 9.258 9.258 0 01-2.925 1.963A8.995 8.995 0 0112 21.2z" fill="#FF6500"/></g><defs><clipPath id="prefix__clip0_1523_749"><path fill="#fff" d="M0 0h24v24H0z"/></clipPath></defs></svg>