<svg width="16" height="16" viewBox="0 0 16 16" fill="none" xmlns="http://www.w3.org/2000/svg">
<g clip-path="url(#clip0_3819_2705)">
<mask id="mask0_3819_2705" style="mask-type:alpha" maskUnits="userSpaceOnUse" x="0" y="0" width="24" height="24">
<rect width="24" height="24" fill="#D9D9D9"/>
</mask>
<g mask="url(#mask0_3819_2705)">
<path d="M2.66675 14V3.33333C2.66675 2.96667 2.7973 2.65278 3.05841 2.39167C3.31953 2.13056 3.63341 2 4.00008 2H8.00008C8.36675 2 8.68064 2.13056 8.94175 2.39167C9.20286 2.65278 9.33342 2.96667 9.33342 3.33333V8H10.0001C10.3667 8 10.6806 8.13056 10.9417 8.39167C11.2029 8.65278 11.3334 8.96667 11.3334 9.33333V12.3333C11.3334 12.5222 11.3973 12.6806 11.5251 12.8083C11.6529 12.9361 11.8112 13 12.0001 13C12.189 13 12.3473 12.9361 12.4751 12.8083C12.6029 12.6806 12.6667 12.5222 12.6667 12.3333V7.53333C12.5667 7.58889 12.4612 7.625 12.3501 7.64167C12.239 7.65833 12.1223 7.66667 12.0001 7.66667C11.5334 7.66667 11.139 7.50556 10.8167 7.18333C10.4945 6.86111 10.3334 6.46667 10.3334 6C10.3334 5.64444 10.4306 5.325 10.6251 5.04167C10.8195 4.75833 11.0779 4.55556 11.4001 4.43333L10.0001 3.03333L10.7001 2.33333L13.1667 4.73333C13.3334 4.9 13.4584 5.09444 13.5417 5.31667C13.6251 5.53889 13.6667 5.76667 13.6667 6V12.3333C13.6667 12.8 13.5056 13.1944 13.1834 13.5167C12.8612 13.8389 12.4667 14 12.0001 14C11.5334 14 11.139 13.8389 10.8167 13.5167C10.4945 13.1944 10.3334 12.8 10.3334 12.3333V9H9.33342V14H2.66675ZM4.00008 6.66667H8.00008V3.33333H4.00008V6.66667ZM12.0001 6.66667C12.189 6.66667 12.3473 6.60278 12.4751 6.475C12.6029 6.34722 12.6667 6.18889 12.6667 6C12.6667 5.81111 12.6029 5.65278 12.4751 5.525C12.3473 5.39722 12.189 5.33333 12.0001 5.33333C11.8112 5.33333 11.6529 5.39722 11.5251 5.525C11.3973 5.65278 11.3334 5.81111 11.3334 6C11.3334 6.18889 11.3973 6.34722 11.5251 6.475C11.6529 6.60278 11.8112 6.66667 12.0001 6.66667Z" fill="#00B38F"/>
</g>
</g>
<defs>
<clipPath id="clip0_3819_2705">
<rect width="16" height="16" fill="white"/>
</clipPath>
</defs>
</svg>
