<svg width="16" height="16" fill="none" xmlns="http://www.w3.org/2000/svg"><path d="M12.667 15.333l-.934-.933 1.05-1.067H10V12h2.783l-1.066-1.067.95-.933 2.666 2.667-2.666 2.666zm-10-2c-.367 0-.68-.13-.942-.391A1.284 1.284 0 011.333 12V4c0-.367.13-.68.392-.942.261-.26.575-.391.942-.391h10.666c.367 0 .68.13.942.391.261.261.392.575.392.942v5.2c-.3-.178-.62-.311-.959-.4a4.088 4.088 0 00-1.041-.133c-1.111 0-2.056.389-2.834 1.166-.777.778-1.166 1.723-1.166 2.834v.666h-6zM8 8.667l5.333-3.334V4L8 7.333 2.667 4v1.333L8 8.667z" fill="#00B38F"/></svg>