<svg xmlns="http://www.w3.org/2000/svg" height="20" viewBox="0 -960 960 960" width="20" fill="#5f6368"><path d="M480.28-96Q401-96 331-126t-122.5-82.5Q156-261 126-330.81T96-480h72q0 64 24.45 121.07 24.46 57.06 67 99.5Q302-217 358.84-192.5 415.68-168 479.8-168 610-168 701-259t91-221q0-130-91-221t-221-91q-83 0-152 39T217-648h95v72H96v-216h72v88q53-73 134.12-116.5T480-864q80 0 149.5 30t122 82.5Q804-699 834-629.28q30 69.73 30 149Q864-401 834-331t-82.5 122.5Q699-156 629.28-126q-69.73 30-149 30zm-72-240q-15.28 0-25.78-10.33-10.5-10.33-10.5-25.6v-107.8q0-15.27 10.37-25.64 10.38-10.38 25.71-10.38v-36.08q0-29.77 21.19-50.97 21.2-21.2 50.97-21.2 29.76 0 50.83 21.15 21.07 21.15 21.07 50.85v36q15.24 0 25.55 10.35T588-480v108q0 15.3-10.33 25.65Q567.33-336 552.06-336H408.28zM444-516h72v-35.79q0-15.21-10.29-25.71t-25.5-10.5q-15.21 0-25.71 10.35T444-552v36z"/></svg>