<svg width="36" height="36" fill="none" xmlns="http://www.w3.org/2000/svg"><path d="M1 15.45C1 9.885 1 7.103 2.253 5.059a8.5 8.5 0 012.806-2.806C7.103 1 9.885 1 15.45 1h5.1c5.565 0 8.347 0 10.391 1.253a8.5 8.5 0 012.806 2.806C35 7.103 35 9.885 35 15.45v5.1c0 5.565 0 8.347-1.253 10.391a8.499 8.499 0 01-2.806 2.806C28.897 35 26.115 35 20.55 35h-5.1c-5.565 0-8.347 0-10.391-1.253a8.499 8.499 0 01-2.806-2.806C1 28.897 1 26.115 1 20.55v-5.1z" fill="url(#prefix__paint0_linear_1515_731)"/><path d="M1 15.45C1 9.885 1 7.103 2.253 5.059a8.5 8.5 0 012.806-2.806C7.103 1 9.885 1 15.45 1h5.1c5.565 0 8.347 0 10.391 1.253a8.5 8.5 0 012.806 2.806C35 7.103 35 9.885 35 15.45v5.1c0 5.565 0 8.347-1.253 10.391a8.499 8.499 0 01-2.806 2.806C28.897 35 26.115 35 20.55 35h-5.1c-5.565 0-8.347 0-10.391-1.253a8.499 8.499 0 01-2.806-2.806C1 28.897 1 26.115 1 20.55v-5.1z" fill="url(#prefix__paint1_radial_1515_731)"/><path d="M1 15.45C1 9.885 1 7.103 2.253 5.059a8.5 8.5 0 012.806-2.806C7.103 1 9.885 1 15.45 1h5.1c5.565 0 8.347 0 10.391 1.253a8.5 8.5 0 012.806 2.806C35 7.103 35 9.885 35 15.45v5.1c0 5.565 0 8.347-1.253 10.391a8.499 8.499 0 01-2.806 2.806C28.897 35 26.115 35 20.55 35h-5.1c-5.565 0-8.347 0-10.391-1.253a8.499 8.499 0 01-2.806-2.806C1 28.897 1 26.115 1 20.55v-5.1z" fill="url(#prefix__paint2_radial_1515_731)"/><path d="M1 15.45C1 9.885 1 7.103 2.253 5.059a8.5 8.5 0 012.806-2.806C7.103 1 9.885 1 15.45 1h5.1c5.565 0 8.347 0 10.391 1.253a8.5 8.5 0 012.806 2.806C35 7.103 35 9.885 35 15.45v5.1c0 5.565 0 8.347-1.253 10.391a8.499 8.499 0 01-2.806 2.806C28.897 35 26.115 35 20.55 35h-5.1c-5.565 0-8.347 0-10.391-1.253a8.499 8.499 0 01-2.806-2.806C1 28.897 1 26.115 1 20.55v-5.1z" fill="url(#prefix__paint3_radial_1515_731)"/><path d="M13.976 27.35v-8.282l8.047 8.282H26.5v-.215l-9.256-9.43 8.542-8.948V8.65h-4.505l-7.305 7.907V8.65H10.35v18.7h3.626z" fill="#fff"/><defs><radialGradient id="prefix__paint1_radial_1515_731" cx="0" cy="0" r="1" gradientUnits="userSpaceOnUse" gradientTransform="matrix(38.45036 -38.65977 39.23812 39.02558 2.624 33.712)"><stop stop-color="#232DE3"/><stop offset="1" stop-color="#232DE3" stop-opacity="0"/></radialGradient><radialGradient id="prefix__paint2_radial_1515_731" cx="0" cy="0" r="1" gradientUnits="userSpaceOnUse" gradientTransform="rotate(-138.45 23.186 11.111) scale(34.0921 51.9808)"><stop stop-color="#8B4DFF"/><stop offset="1" stop-color="#8B4DFF" stop-opacity="0"/></radialGradient><radialGradient id="prefix__paint3_radial_1515_731" cx="0" cy="0" r="1" gradientUnits="userSpaceOnUse" gradientTransform="matrix(0 26.8061 -65.0389 0 17.717 1.252)"><stop stop-color="#24D5FF"/><stop offset="1" stop-color="#1BB8FF" stop-opacity="0"/></radialGradient><linearGradient id="prefix__paint0_linear_1515_731" x1="18" y1="1" x2="18" y2="35" gradientUnits="userSpaceOnUse"><stop stop-color="#1FD1FF"/><stop offset="1" stop-color="#1BB8FF"/></linearGradient></defs></svg>