<svg width="16" height="16" fill="none" xmlns="http://www.w3.org/2000/svg"><path d="M13.166 15.05l-5.033-5.033c-.356.6-.84 1.08-1.45 1.442A3.891 3.891 0 014.666 12c-1.111 0-2.056-.389-2.833-1.166C1.055 10.056.666 9.11.666 8c0-.733.18-1.405.542-2.016a4.052 4.052 0 011.441-1.45l-1.7-1.7.95-.934 12.2 12.217-.933.933zm.85-8.383l1.317 1.317-2.667 2.666-1.333-1.316-.05.066-2.734-2.733h5.467zM4.666 10a1.9 1.9 0 001.25-.441c.356-.295.583-.653.683-1.075L4.183 6.067c-.467.1-.836.336-1.109.708A2.03 2.03 0 002.666 8c0 .556.194 1.028.583 1.417.39.389.861.583 1.417.583z" fill="#FF6500"/></svg>