<svg width="16" height="16" fill="none" xmlns="http://www.w3.org/2000/svg"><path d="M3.333 14.666c-.366 0-.68-.13-.941-.391A1.284 1.284 0 012 13.333V4c0-.367.13-.68.392-.942.26-.261.575-.392.941-.392H4V1.333h1.333v1.333h5.334V1.333H12v1.333h.667c.366 0 .68.13.941.392.261.261.392.575.392.942v3.116a.645.645 0 01-.192.475.645.645 0 01-.475.192.645.645 0 01-.475-.192.645.645 0 01-.191-.475v-.45H3.333v6.667H7.2c.189 0 .347.064.475.192a.645.645 0 01.192.475.645.645 0 01-.192.475.645.645 0 01-.475.191H3.333zm8.667.667a3.213 3.213 0 01-2.358-.975A3.213 3.213 0 018.667 12c0-.922.325-1.709.975-2.359A3.213 3.213 0 0112 8.666c.922 0 1.708.325 2.358.975.65.65.975 1.437.975 2.359 0 .922-.325 1.708-.975 2.358-.65.65-1.436.975-2.358.975zm1.117-1.75l.466-.467-1.25-1.25V10h-.666v2.133l1.45 1.45z" fill="#7B7B9D"/></svg>