<svg width="16" height="16" fill="none" xmlns="http://www.w3.org/2000/svg"><path d="M4.666 10.15c.6 0 1.108-.208 1.525-.625.417-.417.625-.925.625-1.525 0-.6-.208-1.108-.625-1.525a2.075 2.075 0 00-1.525-.625c-.6 0-1.108.208-1.525.625A2.075 2.075 0 002.516 8c0 .6.208 1.108.625 1.525.417.417.925.625 1.525.625zm0 1.85c-1.111 0-2.056-.389-2.833-1.167C1.055 10.056.666 9.111.666 8c0-1.111.389-2.056 1.167-2.833C2.61 4.389 3.555 4 4.666 4c.944 0 1.736.258 2.375.775A4.079 4.079 0 018.383 6.75h5.733l1.217 1.217-2.117 2.433L11.499 9l-1.4 1.4-1.183-1.183h-.533a3.528 3.528 0 01-1.342 2.016c-.683.511-1.475.767-2.375.767z" fill="#00B38F"/></svg>